HIERARCHY
ROOT joint_Root
{
	OFFSET 0.0 0.0 0.0
	CHANNELS 6 Xposition Yposition Zposition Zrotation Xrotation Yrotation 
	JOINT Hips
	{
		OFFSET -0.726466 93.3139 -2.00062
		CHANNELS 6 Xposition Yposition Zposition Zrotation Xrotation Yrotation 
		JOINT Spine
		{
			OFFSET 15.7357 0.0 0.0
			CHANNELS 6 Xposition Yposition Zposition Zrotation Xrotation Yrotation 
			JOINT Chest
			{
				OFFSET 8.98455 -0.406207 0.0
				CHANNELS 6 Xposition Yposition Zposition Zrotation Xrotation Yrotation 
				JOINT Neck
				{
					OFFSET 16.3773 0.0 0.0
					CHANNELS 6 Xposition Yposition Zposition Zrotation Xrotation Yrotation 
					JOINT Head
					{
						OFFSET 6.45672 0.0 0.0
						CHANNELS 6 Xposition Yposition Zposition Zrotation Xrotation Yrotation 
						End Site
						{
							OFFSET 0.0 0.0 0.0
						}
					}
				}
				JOINT Shoulder_L
				{
					OFFSET 12.9942 -0.242716 4.98039
					CHANNELS 6 Xposition Yposition Zposition Zrotation Xrotation Yrotation 
					JOINT UpperArm_L
					{
						OFFSET 5.34809 0.0 0.0
						CHANNELS 6 Xposition Yposition Zposition Zrotation Xrotation Yrotation 
						JOINT LowerArm_L
						{
							OFFSET 24.3286 1.87007e-05 0.0
							CHANNELS 6 Xposition Yposition Zposition Zrotation Xrotation Yrotation 
							JOINT Hand_L
							{
								OFFSET 22.2916 0.0 0.0
								CHANNELS 6 Xposition Yposition Zposition Zrotation Xrotation Yrotation 
								End Site
								{
									OFFSET 0.0 0.0 0.0
								}
							}
						}
					}
				}
				JOINT Shoulder_R
				{
					OFFSET 12.9945 -0.242716 -4.98039
					CHANNELS 6 Xposition Yposition Zposition Zrotation Xrotation Yrotation 
					JOINT UpperArm_R
					{
						OFFSET -5.34813 0.0 0.0
						CHANNELS 6 Xposition Yposition Zposition Zrotation Xrotation Yrotation 
						JOINT LowerArm_R
						{
							OFFSET -24.3289 0.000322201 0.0
							CHANNELS 6 Xposition Yposition Zposition Zrotation Xrotation Yrotation 
							JOINT Hand_R
							{
								OFFSET -22.2915 -0.000108084 0.0
								CHANNELS 6 Xposition Yposition Zposition Zrotation Xrotation Yrotation 
								End Site
								{
									OFFSET 0.0 0.0 0.0
								}
							}
						}
					}
				}
			}
		}
		JOINT UpperLeg_L
		{
			OFFSET -2.19248 -6.46944 0.0
			CHANNELS 6 Xposition Yposition Zposition Zrotation Xrotation Yrotation 
			JOINT LowerLeg_L
			{
				OFFSET 39.0811 0.0 -1.23785e-05
				CHANNELS 6 Xposition Yposition Zposition Zrotation Xrotation Yrotation 
				JOINT Foot_L
				{
					OFFSET 40.9854 0.0 -1.26872e-05
					CHANNELS 6 Xposition Yposition Zposition Zrotation Xrotation Yrotation 
					JOINT Toes_L
					{
						OFFSET 11.7543 0.0 0.0
						CHANNELS 6 Xposition Yposition Zposition Zrotation Xrotation Yrotation 
						End Site
						{
							OFFSET 0.0 0.0 0.0
						}
					}
				}
			}
		}
		JOINT UpperLeg_R
		{
			OFFSET -2.19251 6.46944 0.0
			CHANNELS 6 Xposition Yposition Zposition Zrotation Xrotation Yrotation 
			JOINT LowerLeg_R
			{
				OFFSET -39.0811 -0.00228153 -0.0401928
				CHANNELS 6 Xposition Yposition Zposition Zrotation Xrotation Yrotation 
				JOINT Foot_R
				{
					OFFSET -40.9854 0.0 0.0
					CHANNELS 6 Xposition Yposition Zposition Zrotation Xrotation Yrotation 
					JOINT Toes_R
					{
						OFFSET -11.7543 0.0 0.0
						CHANNELS 6 Xposition Yposition Zposition Zrotation Xrotation Yrotation 
						End Site
						{
							OFFSET 0.0 0.0 0.0
						}
					}
				}
			}
		}
	}
}
MOTION
Frames:	6
Frame Time:	0.0333333
0.000000 0.000000 0.000000 0.000000 0.000000 -0.000000 139.966000 89.891300 -140.144000 90.002400 -2.098290 -0.721597 15.735700 0.000005 -0.000001 110.341000 82.341500 -110.417000 8.984550 -0.406207 -0.000000 6.621210 5.308420 -0.459761 16.377300 -0.000001 -0.000001 -0.127539 -1.628760 0.092600 6.456720 -0.000001 -0.000000 -3.056600 -4.402740 -2.045520 12.994200 -0.242716 4.980390 -89.033100 -2.507490 -68.905700 5.348090 -0.000007 -0.000001 -77.394500 16.232700 4.002970 24.328600 0.000019 0.000005 1.428850 6.636550 -12.178600 22.291600 -0.000001 0.000005 8.630940 5.359980 -1.676710 12.994500 -0.242716 -4.980390 88.503100 5.313740 -74.242600 -5.348130 -0.000001 -0.000004 -51.554900 24.793400 -41.578300 -24.328900 0.000322 -0.000009 1.504530 2.575390 -30.325200 -22.291500 -0.000108 -0.000004 15.895700 5.419980 -3.598400 -2.192480 -6.469440 -0.000000 -176.346000 -1.711700 -27.052400 39.081100 -0.000007 -0.000012 -0.000070 0.000318 12.379200 40.985400 -0.000006 -0.000013 -0.815941 -2.660370 -58.482300 11.754300 -0.000000 0.000003 -0.006210 -0.072742 -19.537500 -2.192510 6.469440 -0.000001 175.988000 12.689000 -173.719000 -39.081100 -0.002282 -0.040193 -0.025419 0.070805 22.089700 -40.985400 0.000008 0.000006 5.489650 5.373150 -72.885100 -11.754300 -0.000006 -0.000006 -0.906655 -1.038090 -22.586300
0.000000 0.000000 0.000000 0.000000 0.000000 -0.000000 140.708000 89.208700 -136.441000 89.711600 -2.966010 -0.569749 15.735700 0.000005 -0.000001 111.282000 82.344200 -111.425000 8.984550 -0.406207 -0.000000 6.531800 5.542080 -0.601753 16.377300 -0.000001 -0.000001 0.008769 -1.485080 0.178580 6.456720 -0.000001 -0.000000 -3.078920 -4.264260 -1.857200 12.994200 -0.242716 4.980390 -89.046600 -2.476730 -68.937600 5.348090 -0.000007 -0.000001 -77.824600 16.032800 4.869300 24.328600 0.000019 0.000005 1.375150 6.869870 -11.348100 22.291600 -0.000001 0.000005 8.089170 5.347240 -1.292070 12.994500 -0.242716 -4.980390 88.512700 5.352560 -74.446500 -5.348130 -0.000001 -0.000004 -50.862600 25.364600 -42.625700 -24.328900 0.000322 -0.000009 1.153360 2.051370 -29.374800 -22.291500 -0.000108 -0.000004 15.907100 5.423180 -3.706410 -2.192480 -6.469440 -0.000000 -178.004000 -5.122140 -27.272600 39.081100 -0.000007 -0.000012 0.000693 -0.003123 12.514000 40.985400 -0.000006 -0.000013 -0.136314 -4.851650 -59.441900 11.754300 -0.000000 0.000003 -0.006017 -0.070999 -19.466300 -2.192510 6.469440 -0.000001 175.122000 11.359800 -172.383000 -39.081100 -0.002282 -0.040193 -0.024982 0.062434 24.380200 -40.985400 0.000008 0.000006 5.017790 5.417250 -73.056900 -11.754300 -0.000006 -0.000006 -0.025018 -0.193646 -24.495600
0.000000 0.000000 0.000000 0.000000 0.000000 -0.000000 141.603000 88.739100 -132.355000 90.452900 -3.349020 -0.613733 15.735700 0.000005 -0.000001 110.961000 82.593200 -111.515000 8.984550 -0.406207 -0.000000 6.113410 5.292710 -1.390570 16.377300 -0.000001 -0.000001 0.552071 -1.436610 0.344740 6.456720 -0.000001 -0.000000 -2.882980 -4.158480 -1.695770 12.994200 -0.242716 4.980390 -89.196700 -2.091440 -68.982200 5.348090 -0.000007 -0.000001 -77.857500 16.321900 5.017530 24.328600 0.000019 0.000005 1.507450 8.116150 -10.559200 22.291600 -0.000001 0.000005 7.437120 5.330950 -0.811638 12.994500 -0.242716 -4.980390 88.406500 5.687940 -74.321200 -5.348130 -0.000001 -0.000004 -50.690600 26.432700 -42.553500 -24.328900 0.000322 -0.000009 1.029600 1.922400 -28.205200 -22.291500 -0.000108 -0.000004 15.563600 5.418980 -3.563820 -2.192480 -6.469440 -0.000000 -179.768000 -6.378240 -30.315400 39.081100 -0.000007 -0.000012 0.038281 -0.103535 20.291600 40.985400 -0.000006 -0.000013 0.779672 -5.873580 -55.030800 11.754300 -0.000000 0.000003 -0.007158 -0.081025 -19.875400 -2.192510 6.469440 -0.000001 173.101000 10.419400 -171.501000 -39.081100 -0.002282 -0.040193 -0.016770 0.038924 27.285300 -40.985400 0.000008 0.000006 4.659880 5.726700 -72.059600 -11.754300 -0.000006 -0.000006 -0.046844 -0.286320 -28.356100
0.000000 0.000000 0.000000 0.000000 0.000000 -0.000000 142.524000 88.441500 -127.898000 91.135300 -3.575740 -0.498293 15.735700 0.000005 -0.000001 110.119000 82.974800 -111.094000 8.984550 -0.406207 -0.000000 5.484360 4.841170 -2.180260 16.377300 -0.000001 -0.000001 1.025490 -1.303280 0.504228 6.456720 -0.000001 -0.000000 -2.225490 -4.045260 -1.401410 12.994200 -0.242716 4.980390 -89.377900 -1.599980 -68.749200 5.348090 -0.000007 -0.000001 -77.571000 16.443100 4.774110 24.328600 0.000019 0.000005 1.727690 9.509900 -10.346000 22.291600 -0.000001 0.000005 6.606310 5.318350 -0.447073 12.994500 -0.242716 -4.980390 88.258700 6.142960 -74.140300 -5.348130 -0.000001 -0.000004 -51.808600 27.638700 -40.362400 -24.328900 0.000322 -0.000009 1.668750 3.162070 -27.855700 -22.291500 -0.000108 -0.000004 14.771300 5.410280 -3.274540 -2.192480 -6.469440 -0.000000 179.255000 -6.177600 -31.251200 39.081100 -0.000007 -0.000012 0.031360 -0.066059 25.395200 40.985400 -0.000006 -0.000013 0.792800 -5.182330 -49.407900 11.754300 -0.000000 0.000003 -0.005747 -0.068526 -19.365500 -2.192510 6.469440 -0.000001 171.489000 8.875210 -171.280000 -39.081100 -0.002282 -0.040193 0.010577 -0.011959 31.323300 -40.985400 0.000008 0.000006 4.596530 5.284530 -68.709900 -11.754300 -0.000006 -0.000006 -0.095063 -0.432139 -34.585500
0.000000 0.000000 0.000000 0.000000 0.000000 -0.000000 143.339000 88.357700 -123.234000 91.294700 -3.032150 0.706337 15.735700 0.000005 -0.000001 107.979000 82.969800 -109.185000 8.984550 -0.406207 -0.000000 5.667630 4.351480 -2.626980 16.377300 -0.000001 -0.000001 1.238630 -1.451820 0.354330 6.456720 -0.000001 -0.000000 -1.800210 -4.153580 -0.662812 12.994200 -0.242716 4.980390 -89.337300 -1.710110 -68.813600 5.348090 -0.000007 -0.000001 -77.557600 17.035500 3.294340 24.328600 0.000019 0.000005 1.793300 9.738800 -10.486200 22.291600 -0.000001 0.000005 5.661140 5.314410 -0.335130 12.994500 -0.242716 -4.980390 88.216600 6.140800 -73.771500 -5.348130 -0.000001 -0.000004 -55.312300 28.058700 -35.653100 -24.328900 0.000322 -0.000009 2.413610 4.443040 -28.560800 -22.291500 -0.000108 -0.000004 14.469900 5.408420 -3.212970 -2.192480 -6.469440 -0.000000 178.982000 -5.345620 -30.215000 39.081100 -0.000007 -0.000012 -0.003045 0.005028 31.206000 40.985400 -0.000006 -0.000013 0.582082 -4.446890 -51.430100 11.754300 -0.000000 0.000003 -0.004147 -0.052968 -18.731500 -2.192510 6.469440 -0.000001 171.069000 7.532310 -171.454000 -39.081100 -0.002282 -0.040193 0.068501 -0.085517 37.329200 -40.985400 0.000008 0.000006 6.075180 3.595250 -61.870300 -11.754300 -0.000006 -0.000006 -0.189348 -0.627111 -43.374500
0.000000 0.000000 0.000000 0.000000 0.000000 -0.000000 144.169000 88.542700 -118.791000 91.238900 -2.822010 2.283660 15.735700 0.000005 -0.000001 106.249000 82.699100 -107.530000 8.984550 -0.406207 -0.000000 6.311920 4.090290 -2.784810 16.377300 -0.000001 -0.000001 1.470950 -1.505380 0.008151 6.456720 -0.000001 -0.000000 -1.737440 -4.121040 -0.429548 12.994200 -0.242716 4.980390 -89.317200 -1.776980 -68.977800 5.348090 -0.000007 -0.000001 -77.423300 18.623900 0.747512 24.328600 0.000019 0.000005 1.676280 8.429310 -11.292500 22.291600 -0.000001 0.000005 5.325490 5.321700 -0.544703 12.994500 -0.242716 -4.980390 88.294700 5.812020 -73.617000 -5.348130 -0.000001 -0.000004 -59.238400 28.131900 -30.355200 -24.328900 0.000322 -0.000009 2.198760 3.990470 -28.897300 -22.291500 -0.000108 -0.000004 14.801700 5.418840 -3.559760 -2.192480 -6.469440 -0.000000 178.542000 -6.673750 -27.502000 39.081100 -0.000007 -0.000012 -0.049354 0.070233 35.097200 40.985400 -0.000006 -0.000013 1.049650 -2.908000 -55.786100 11.754300 -0.000000 0.000003 -0.001472 -0.021910 -17.467700 -2.192510 6.469440 -0.000001 171.001000 6.408630 -173.932000 -39.081100 -0.002282 -0.040193 0.126512 -0.119696 45.838300 -40.985400 0.000008 0.000006 6.577610 2.079520 -51.575700 -11.754300 -0.000006 -0.000006 -0.199667 -0.644550 -44.196100
